<svg version="1.2" xmlns="http://www.w3.org/2000/svg" viewBox="0 0 1000 1000" width="1000" height="1000">
	<title>New Project</title>
	<style>
		.s0 { fill: #000000 } 
		.s1 { fill: #181818 } 
		.s2 { fill: #f7f2e6 } 
	</style>
	<path id="Shape 1" class="s0" d=""/>
	<path id="Shape 2" fill-rule="evenodd" class="s1" d="m101 1h798.3c55.2 0 100 44.8 100 100v798.3c0 55.2-44.8 100-100 100h-798.3c-55.2 0-100-44.8-100-100v-798.3c0-55.2 44.8-100 100-100z"/>
	<path id="CRM" class="s2" aria-label="CRM"  d="m237.1 718h65.1q-1.3 28.4-15.3 50.2-13.9 21.7-39.3 33.6-25.2 11.9-57.6 11.9-53.6 0-84.4-34.8-30.7-34.9-30.7-98.5v-13.5q0-39.9 13.8-69.7 14-30.1 40.1-46.3 26.1-16.4 60.4-16.4 49.4 0 79.5 26.1 30 25.9 34.1 71.6h-65.3q-0.7-24.8-12.5-35.6-11.7-10.8-35.8-10.8-24.4 0-35.8 18.3-11.4 18.3-11.9 58.4v19.2q0 43.4 10.8 62.1 11 18.6 37.7 18.6 22.5 0 34.5-10.6 11.9-10.6 12.6-33.8zm245 92l-48-95.9h-35.4v95.9h-65.5v-271.6h106.9q48.3 0 75.5 21.5 27.3 21.4 27.3 60.6 0 28.3-11.6 47-11.4 18.6-35.8 30.2l56.7 109.5v2.8zm-83.4-221v74.6h41.4q18.7 0 28-9.7 9.5-9.9 9.5-27.4 0-17.6-9.5-27.5-9.5-10-28-10zm183.7-50.6h86l60.6 189 60.5-189h86.2v271.6h-65.7v-63.4l6.3-129.8-65.6 193.2h-43.3l-65.8-193.4 6.3 130v63.4h-65.5z"/>
	<path id="Open" class="s2" aria-label="Open"  d="m301.5 319.3v12.5q0 39.7-14.7 70.3-14.8 30.6-42 47.2-27 16.4-61.7 16.4-34.7 0-61.6-15.8-26.9-16.1-42-45.7-14.9-29.7-15.6-68.1v-15.3q0-39.9 14.5-70.3 14.8-30.6 42-47.2 27.4-16.6 62.3-16.6 34.5 0 61.5 16.4 27.1 16.4 42 46.8 15.1 30.2 15.3 69.4zm-66.6 13.6v-12.5q0-40.4-13.6-61.3-13.4-21.1-38.6-21.1-49.3 0-52.1 73.8l-0.1 20q0 39.9 13.2 61.4 13.2 21.4 39.4 21.4 24.8 0 38.2-21.1 13.4-21 13.6-60.6zm284.8 26.7v3q0 47-21.2 75.2-21.1 27.9-57.1 27.9-27.8 0-45.7-20.3v94.2h-62.9v-279.4h58.8l1.9 18.6q18-22.3 47.5-22.3 37.3 0 58 27.6 20.7 27.4 20.7 75.5zm-62.8 5.8v-6.7q0-53.8-31.4-53.8-22.3 0-29.8 16.1v79.4q8.2 16.8 30.2 16.8 30 0 31-51.8zm188.2 100.3q-46.5 0-75.2-27.6-28.7-27.8-28.7-72.2v-5.2q0-30.9 11.4-54.6 11.5-23.7 33.5-36.6 22-13 52.3-13 42.5 0 67.1 26.4 24.6 26.3 24.6 73.5v24.5h-124.9q3.3 16.9 14.7 26.6 11.4 9.7 29.5 9.7 29.8 0 46.6-20.9l28.7 34q-11.7 16.2-33.4 25.9-21.4 9.5-46.2 9.5zm-7.1-160.8q-27.6 0-32.8 36.6h63.4v-4.8q0.4-15.2-7.7-23.4-8-8.4-22.9-8.4zm116.2-44.7h58.9l2.1 23.7q20.9-27.4 57.6-27.4 31.5 0 47 18.8 15.7 18.8 16.3 56.7v130h-63.1v-127.4q0-15.3-6.1-22.4-6.2-7.3-22.4-7.3-18.5 0-27.4 14.6v142.5h-62.9z"/>
</svg>