<svg xmlns="http://www.w3.org/2000/svg" viewBox="0 0 512 512">
  <defs>
    <linearGradient id="gradient" x1="0%" y1="0%" x2="100%" y2="100%">
      <stop offset="0%" stop-color="#0ea5e9" />
      <stop offset="100%" stop-color="#6366f1" />
    </linearGradient>
  </defs>
  <path fill="url(#gradient)" d="M364.8 304.6c-10.4-19.8-22.3-37.1-35.5-51.5l34.8-160.1c1.3-6.2-0.7-12.6-5.3-17.1-4.6-4.5-11-6.6-17.3-5.3L181.4 96.8c-14.4-13.1-31.6-25-51.5-35.5C93.1 41.9 56.2 32 32 32c-1.6 0-3.2 0.3-4.7 1C11.3 37.9 0 58.7 0 96.6c0 24.3 9.9 61.1 29.3 97.9 10.5 19.9 22.4 37.2 35.5 51.5L30 406.1c-1.3 6.2 0.7 12.6 5.3 17.1 4.6 4.5 11 6.6 17.3 5.3l162.9-32c14.4 13.1 31.6 25 51.5 35.5 36.8 19.3 73.7 29.3 97.9 29.3 37.9 0 58.7-11.3 63.6-27.2 0.6-1.5 1-3.1 1-4.7-0.1-24.3-10-61.1-29.4-97.9l-35.3-27zm-83.2-195c4.9-0.9 9.9-0.9 14.8-0.1h0.2c1 0.2 2.1 0.3 3.1 0.3 6.9 0 12.6-4.5 14.4-10.7 2.2-8-2.5-16.3-10.5-18.5-7.3-1.7-14.8-1.7-22.1 0-7.8 1.8-14 6.9-17.5 14.1-1.8 3.5-2.7 7.5-2.7 11.4 0 3.7 0.8 7.5 2.5 11 4.1 8.4 12.1 14.2 22 15.8 3.7 0.7 7.6 0.6 11.2-0.2 8-1.8 13.8-9.1 12-17-1.1-4.7-4.5-8.4-9.1-10.1-3-1.1-6.4-1.3-9.5-0.5-5.1 1.3-7.7 6.8-5.8 12z"/>
  <path fill="url(#gradient)" d="M256 128c-70.7 0-128 57.3-128 128s57.3 128 128 128 128-57.3 128-128-57.3-128-128-128zm75.8 174.5c-3.1 3.1-7.2 4.7-11.3 4.7s-8.2-1.6-11.3-4.7L256 249.4l-53.1 53.1c-3.1 3.1-7.2 4.7-11.3 4.7s-8.2-1.6-11.3-4.7c-6.2-6.2-6.2-16.4 0-22.6l53.1-53.1-53.1-53.1c-6.2-6.2-6.2-16.4 0-22.6 6.2-6.2 16.4-6.2 22.6 0l53.1 53.1 53.1-53.1c6.2-6.2 16.4-6.2 22.6 0 6.2 6.2 6.2 16.4 0 22.6L278.6 224l53.1 53.1c6.3 6.3 6.3 16.4 0.1 22.6z"/>
  <path fill="url(#gradient)" d="M352 192c0-53-43-96-96-96s-96 43-96 96 43 96 96 96 96-43 96-96zm-96 64c-35.3 0-64-28.7-64-64s28.7-64 64-64 64 28.7 64 64-28.7 64-64 64z"/>
</svg> 